# xmcd
#
# Track frame offsets:
#	150
#	25286
#	48308
#	81975
#	97456
#	121224
#	139236
#	160160
#	186795
#	205627
#
# Disc length: 3090 seconds
#
# Revision: 1
# Processed by: cddbd v1.5.2PL0 Copyright (c) Steve Scherf et al.
# Submitted via: audiograbber 1.83.01
#
DISCID=890c100a
DTITLE=Exence - Hystrionic
DYEAR=2009
DGENRE=Metal
TTITLE0=We Will Never
TTITLE1=In Eternal Dynamics 
TTITLE2=Shaman 
TTITLE3=When Words Are Loose
TTITLE4=Fix from the Ground
TTITLE5=In Loving Memory 
TTITLE6=Primal Mystic Substance 
TTITLE7=Symbolic Act 
TTITLE8=Dream of Wisdom 
TTITLE9=Overhate Threshold 
EXTD=
EXTT0=
EXTT1=
EXTT2=
EXTT3=
EXTT4=
EXTT5=
EXTT6=
EXTT7=
EXTT8=
EXTT9=
PLAYORDER=
